<svg width="38" height="38" viewBox="0 0 38 38" fill="none" xmlns="http://www.w3.org/2000/svg">
<path fill-rule="evenodd" clip-rule="evenodd" d="M19 35.625C23.4092 35.625 27.6379 33.8734 30.7556 30.7556C33.8734 27.6379 35.625 23.4092 35.625 19C35.625 14.5908 33.8734 10.3621 30.7556 7.24435C27.6379 4.12656 23.4092 2.375 19 2.375C14.5908 2.375 10.3621 4.12656 7.24435 7.24435C4.12656 10.3621 2.375 14.5908 2.375 19C2.375 23.4092 4.12656 27.6379 7.24435 30.7556C10.3621 33.8734 14.5908 35.625 19 35.625ZM19 38C24.0391 38 28.8718 35.9982 32.435 32.435C35.9982 28.8718 38 24.0391 38 19C38 13.9609 35.9982 9.12816 32.435 5.56497C28.8718 2.00178 24.0391 0 19 0C13.9609 0 9.12816 2.00178 5.56497 5.56497C2.00178 9.12816 0 13.9609 0 19C0 24.0391 2.00178 28.8718 5.56497 32.435C9.12816 35.9982 13.9609 38 19 38Z" fill="url(#paint0_linear)"/>
<path fill-rule="evenodd" clip-rule="evenodd" d="M18.1592 26.9658C18.0486 26.8555 17.9608 26.7244 17.901 26.5802C17.8411 26.4359 17.8103 26.2812 17.8103 26.125C17.8103 25.9688 17.8411 25.8142 17.901 25.6699C17.9608 25.5256 18.0486 25.3946 18.1592 25.2843L24.4458 19L18.1592 12.7158C18.0488 12.6054 17.9612 12.4743 17.9014 12.33C17.8417 12.1858 17.8109 12.0312 17.8109 11.875C17.8109 11.7189 17.8417 11.5643 17.9014 11.42C17.9612 11.2758 18.0488 11.1447 18.1592 11.0343C18.2696 10.9239 18.4007 10.8363 18.5449 10.7765C18.6892 10.7168 18.8438 10.686 18.9999 10.686C19.1561 10.686 19.3107 10.7168 19.4549 10.7765C19.5992 10.8363 19.7303 10.9239 19.8407 11.0343L26.9657 18.1593C27.0763 18.2696 27.164 18.4006 27.2239 18.5449C27.2837 18.6892 27.3145 18.8438 27.3145 19C27.3145 19.1562 27.2837 19.3109 27.2239 19.4552C27.164 19.5994 27.0763 19.7305 26.9657 19.8408L19.8407 26.9658C19.7304 27.0764 19.5993 27.1641 19.4551 27.224C19.3108 27.2838 19.1561 27.3147 18.9999 27.3147C18.8437 27.3147 18.6891 27.2838 18.5448 27.224C18.4005 27.1641 18.2695 27.0764 18.1592 26.9658Z" fill="url(#paint1_linear)"/>
<path fill-rule="evenodd" clip-rule="evenodd" d="M10.6875 19C10.6875 18.6851 10.8126 18.383 11.0353 18.1603C11.258 17.9376 11.5601 17.8125 11.875 17.8125H23.75C24.0649 17.8125 24.367 17.9376 24.5897 18.1603C24.8124 18.383 24.9375 18.6851 24.9375 19C24.9375 19.3149 24.8124 19.617 24.5897 19.8397C24.367 20.0624 24.0649 20.1875 23.75 20.1875H11.875C11.5601 20.1875 11.258 20.0624 11.0353 19.8397C10.8126 19.617 10.6875 19.3149 10.6875 19Z" fill="url(#paint2_linear)"/>
<defs>
<linearGradient id="paint0_linear" x1="19" y1="0" x2="19" y2="38" gradientUnits="userSpaceOnUse">
<stop stop-color="#2498FF"/>
<stop offset="0.911458" stop-color="#1F1CAF"/>
</linearGradient>
<linearGradient id="paint1_linear" x1="22.5624" y1="10.686" x2="22.5624" y2="27.3147" gradientUnits="userSpaceOnUse">
<stop stop-color="#2498FF"/>
<stop offset="0.911458" stop-color="#1F1CAF"/>
</linearGradient>
<linearGradient id="paint2_linear" x1="17.8125" y1="17.8125" x2="17.8125" y2="20.1875" gradientUnits="userSpaceOnUse">
<stop stop-color="#2498FF"/>
<stop offset="0.911458" stop-color="#1F1CAF"/>
</linearGradient>
</defs>
</svg>
