<svg width="24" height="24" viewBox="0 0 24 24" fill="none" xmlns="http://www.w3.org/2000/svg">
<path d="M21 19.5H18.75C18.5469 19.5 18.3711 19.4258 18.2227 19.2773C18.0742 19.1289 18 18.9531 18 18.75V11.25C18 11.0469 18.0742 10.8711 18.2227 10.7227C18.3711 10.5742 18.5469 10.5 18.75 10.5H19.5C19.5 8.1875 18.8555 6.35938 17.5664 5.01562C16.2773 3.67188 14.4219 3 12 3C9.57812 3 7.72266 3.67188 6.43359 5.01562C5.14453 6.35938 4.5 8.1875 4.5 10.5H5.25C5.45312 10.5 5.62891 10.5742 5.77734 10.7227C5.92578 10.8711 6 11.0469 6 11.25V18.75C6 18.9531 5.92578 19.1289 5.77734 19.2773C5.62891 19.4258 5.45312 19.5 5.25 19.5H4.5C4.5 20.3281 4.79297 21.0352 5.37891 21.6211C5.96484 22.207 6.67188 22.5 7.5 22.5H9C9 22.0781 9.14453 21.7227 9.43359 21.4336C9.72266 21.1445 10.0781 21 10.5 21H12C12.4219 21 12.7773 21.1445 13.0664 21.4336C13.3555 21.7227 13.5 22.0742 13.5 22.4883C13.5 22.9023 13.3555 23.2578 13.0664 23.5547C12.7773 23.8516 12.4219 24 12 24H7.5C6.25 24 5.1875 23.5625 4.3125 22.6875C3.4375 21.8125 3 20.75 3 19.5C2.17188 19.5 1.46484 19.0625 0.878906 18.1875C0.292969 17.3125 0 16.25 0 15C0 14.1875 0.136719 13.4375 0.410156 12.75C0.683594 12.0625 1.04688 11.5234 1.5 11.1328V10.5C1.5 9.07812 1.77734 7.71875 2.33203 6.42188C2.88672 5.125 3.63281 4.00781 4.57031 3.07031C5.50781 2.13281 6.625 1.38672 7.92188 0.832031C9.21875 0.277344 10.5781 0 12 0C13.4219 0 14.7812 0.277344 16.0781 0.832031C17.375 1.38672 18.4922 2.13281 19.4297 3.07031C20.3672 4.00781 21.1133 5.125 21.668 6.42188C22.2227 7.71875 22.5 9.07812 22.5 10.5V11.1328C22.9531 11.5234 23.3164 12.0625 23.5898 12.75C23.8633 13.4375 24 14.1875 24 15C24 16.25 23.707 17.3125 23.1211 18.1875C22.5352 19.0625 21.8281 19.5 21 19.5Z" fill="#2498FF"/>
</svg>
