<svg width="100" height="107" viewBox="0 0 100 107" fill="none" xmlns="http://www.w3.org/2000/svg">
<g clip-path="url(#clip0)">
<path d="M14.3751 106.667H85.6251C89.2362 106.667 92.3265 105.451 94.8959 103.021C97.4653 100.59 98.8195 97.5 98.9584 93.75V93.3333C98.9584 90 98.0556 86.875 96.2501 83.9583L63.3334 40V8.95833H67.7084C68.8195 8.95833 69.8612 8.47222 70.8334 7.5C71.8056 6.52778 72.2917 5.48611 72.2917 4.375C72.2917 3.26389 71.8056 2.25694 70.8334 1.35417C69.8612 0.451389 68.8195 0 67.7084 0H32.2917C31.1806 0 30.139 0.451389 29.1667 1.35417C28.1945 2.25694 27.7084 3.26389 27.7084 4.375C27.7084 5.48611 28.1945 6.52778 29.1667 7.5C30.139 8.47222 31.1806 8.95833 32.2917 8.95833H36.6667V39.5833L4.16675 83.5417C2.36119 86.4583 1.45841 89.4444 1.45841 92.5L1.04175 93.3333C1.18064 97.0833 2.56953 100.243 5.20841 102.812C7.8473 105.382 10.9029 106.667 14.3751 106.667ZM36.6667 54.5833L38.9584 52.0833C42.2917 47.3611 44.514 42.0139 45.6251 36.0417V8.95833H54.3751V35.625C55.6251 42.1528 57.8473 47.4306 61.0417 51.4583L63.3334 54.1667L72.2917 66.25H27.7084L36.6667 54.5833ZM11.2501 88.9583L23.3334 72.5V75.625H78.9584L88.7501 88.9583C89.0278 89.2361 89.4445 90.5556 90.0001 92.9167C90.0001 94.1667 89.5487 95.2778 88.6459 96.25C87.7431 97.2222 86.7362 97.7083 85.6251 97.7083H14.3751C13.264 97.7083 12.257 97.2222 11.3542 96.25C10.4515 95.2778 10.0001 94.1667 10.0001 92.9167C10.0001 91.1111 10.4167 89.7917 11.2501 88.9583Z" fill="url(#paint0_linear)"/>
</g>
<defs>
<linearGradient id="paint0_linear" x1="50.0001" y1="0" x2="50.0001" y2="106.667" gradientUnits="userSpaceOnUse">
<stop stop-color="#2498FF"/>
<stop offset="1" stop-color="#1F1CAF"/>
</linearGradient>
<clipPath id="clip0">
<rect width="100" height="106.667" fill="white"/>
</clipPath>
</defs>
</svg>
